<mxfile host="app.diagrams.net" modified="2025-03-08T12:43:26.951Z" agent="Mozilla/5.0 (Windows NT 10.0; Win64; x64) AppleWebKit/537.36 (KHTML, like Gecko) Chrome/133.0.0.0 Safari/537.36" version="22.1.16" etag="WaxPFqQXX_frOpczB2dw" type="github">
  <diagram name="第 1 页" id="L1v_pcVKGlfNcPX-YDx9">
    <mxGraphModel>
      <root>
        <mxCell id="0" />
        <mxCell id="1" parent="0" />
      </root>
    </mxGraphModel>
  </diagram>
</mxfile>
